
<global>
amp_veltrack=0
ampeg_release=0.25
loop_mode=loop_continuous
</global>

<group>
group_label=PP
lpc_hicc1=42
lpc_locc1=0

<region>
hivel=127
key=A#4
loop_end=281189
loop_start=120940
loop_xfade=60533
lovel=0
lpc=R8pDQvsR+MLGrM9CzCIPwmF5iUGwuHZAI7etwSchy0Buq57AHXytQHJtD0F9JePAX9lMQBqWD8GRIQlBO6y5wGzdpkDixkDAytQBQHTSbsB+1XpAaKNqQBQ2KMFMJ79A
lpc_rms=-24.84
sample=Flute_sustain_PP_A#4.opus
</region>

<region>
hivel=127
key=A#5
loop_end=292352
loop_start=125741
loop_xfade=62936
lovel=0
lpc=pWDJQWitzcE4nKVAwX9WQGA8TsB8+05ACD4VQOgbj71OMBM/Lpg3wCrs/b4wbAdAHHNLQBg+p7+73G1AKylywGmTrL8mN5U/XwY/QJy1kD5vrMQ/6UWivpGasz9lU8/A
lpc_rms=-23.81
sample=Flute_sustain_PP_A#5.opus
</region>

<region>
hivel=127
key=A#6
loop_end=304521
loop_start=130975
loop_xfade=65556
lovel=0
lpc=vUIUQhT8mcFFYyzB5K7JwPZOZUATfyNAFj8oQW6kxj914Xa/CAapv8bxt0CKJ1s9a+VKwSSrh8FRGBNBxphPQUxQxkCgkovA5dzdwOT/Y8BBdjXAy6omPlVtgL94n92/
lpc_rms=-17.87
sample=Flute_sustain_PP_A#6.opus
</region>

<region>
hivel=127
key=A4
loop_end=295490
loop_start=127091
loop_xfade=63611
lovel=0
lpc=hOafQoQAVMN6LDRDHrVewjpbNEK7MyTClHAPP9xEdME8pd5BhtqgwftFrUEl9TPBn0LoQBGREsGpr1ZA77qFwP1kG0EtrRnBBXqzPvQChT9XAwJBZrHLQNfLzMENxmFB
lpc_rms=-21.10
sample=Flute_sustain_PP_A4.opus
</region>

<region>
hivel=127
key=A5
loop_end=285579
loop_start=122828
loop_xfade=61478
lovel=0
lpc=R65YQvWwg8Lx6IdBaAucQPTG88CAV8pA7uDHQItXAEBLRJBA9IV/wR5x2L91IqZAXQbvQKYDrj78HKdALxKWwEqmlcD9nhTBgJ4nQVuP8kBUSco/tfR4wCKewkBWO1bB
lpc_rms=-20.13
sample=Flute_sustain_PP_A5.opus
</region>

<region>
hivel=127
key=A6
loop_end=304984
loop_start=131175
loop_xfade=65655
lovel=0
lpc=sbNKQjwxV8FroI7BaG4IP/q8dT+soGtBY8alP+Ekij8xNoJBH6U2wZqAw0BRwR/A2PsOQZdk8MGi6K3BDgNyQcTFXEG1fvY/3L4dwdHyBsFlK0dArTBDwZpskD4OUcE/
lpc_rms=-17.01
sample=Flute_sustain_PP_A6.opus
</region>

<region>
hivel=127
key=B4
loop_end=287937
loop_start=123842
loop_xfade=61986
lovel=0
lpc=RJkFQiNboMKjy4BC/cDuwUDD0EF1rt3As0HDwJKOTsA3LZm/AYPePnfCxUBQuJy/V79WQGOiCcE/QdhAZo6rwCnzwkBz55fAcdTOP8J96L9hZu0/9mN0QGfCucAt8hRA
lpc_rms=-28.32
sample=Flute_sustain_PP_B4.opus
</region>

<region>
hivel=127
key=B5
loop_end=293436
loop_start=126208
loop_xfade=63169
lovel=0
lpc=MpgIQoMK1MGXG1NA853bQP9itr9UNSdANhGov9W8LD+1Z6BAPWunwFMxfUDCirM+CBMwQPkxg74cYII/2uv4v0d9R0BWVg1Ay0+qv8bc0j/bl4Q/QfA0QNwaPD9yLFXB
lpc_rms=-24.64
offset=5048
sample=Flute_sustain_PP_B5.opus
</region>

<region>
hivel=127
key=B6
loop_end=291962
loop_start=125574
loop_xfade=62852
lovel=0
lpc=X/8HQmQaMMArTR7B/hITwVr5fUBAhNdArYP3QHktZkBOkC9A50u5PsVFpkCQR//AClxhwfvQJ8HdA2NBNKomQQzDK0DnDPDAmXN2wMj0i8CA+Do/hP9Iv98/QECMysa/
lpc_rms=-15.19
sample=Flute_sustain_PP_B6.opus
</region>

<region>
hivel=127
key=C#4
loop_end=307674
loop_start=132332
loop_xfade=66234
lovel=0
lpc=vl2YQksaPsM7IhZD143xwUJ8mUDG04bBwRaTQERjX8AESwdB3CJBv3/IUj/ndLTAQJ6pv7Z/1D4qeWlA2JhDvunPC0CMFhq/x4scwI8nwb9fKKI/iuFQQLRIBcBaBnm9
lpc_rms=-28.36
sample=Flute_sustain_PP_C#4.opus
</region>

<region>
hivel=127
key=C#5
loop_end=281669
loop_start=121146
loop_xfade=60636
lovel=0
lpc=jE25QearOMKGB8xBHFc1wMtVb0AHrUhAZKZnwLIvocB1/xlA21EOwKcWxkAjmGbAudQVQMLvJsADK6Q/707Hv05Wvz/LmTM/IosJv8nQKb4UNpM/V7lCP7YwccA0+yxA
lpc_rms=-30.73
sample=Flute_sustain_PP_C#5.opus
</region>

<region>
hivel=127
key=C#6
loop_end=302853
loop_start=130258
loop_xfade=65196
lovel=0
lpc=AvxAQoAuCcKchprA+5POQGlZtcDkK0dASaisPd1+bL9tzApA7MGLwMM2r0A4HGXAiORNQBz8RcDPMs8/EjRvP2Gnkb820Z++obcUQPib5L5quXA/1kq2wZvKUcEZMLZB
lpc_rms=-21.95
sample=Flute_sustain_PP_C#6.opus
</region>

<region>
hikey=C4
hivel=127
lokey=C4
loop_end=301926
loop_start=129859
loop_xfade=64997
lovel=0
lpc=E1C1QmYAYMMnTiFDeiSKwd8TFEHl6LLBG/0rQE7+7sCbaSpAjF7Svb8xq0Cwi9ZApdMNPkr60sAy1czALqUuP+0aGUBS+pRAol7KP8m2079WDUDAhFMvQKcnbsDCPAlA
lpc_rms=-28.11
sample=Flute_sustain_PP_C4.opus
</region>

<region>
hivel=127
key=C5
loop_end=282361
loop_start=121444
loop_xfade=60785
lovel=0
lpc=TcPoQaARgML9NCpCdjI0wS/2LEFMjck//gcZwXx/gcB2GHlAebOXP/4ulUArHT3Ad381PneMjsBtpqpAriVZwBkWQ0AIm2i/yxIVQJnV7MBgS7lA3rF4P80SjcCOejpA
lpc_rms=-28.24
sample=Flute_sustain_PP_C5.opus
</region>

<region>
hivel=127
key=C6
loop_end=311691
loop_start=134059
loop_xfade=67099
lovel=0
lpc=Fi4cQsMm68HYwYlBDYYBwTRCQUDhuoNA/WnOPy1klsDjePVA8KMWwUdJI0FdjGDAwR+JQI3AEr/hyjXAwWGQQNTFKcDGtJ9An6HeP1FUI8Bu9se+CQa8QL+UgsEMMqjA
lpc_rms=-22.91
offset=6876
sample=Flute_sustain_PP_C6.opus
</region>

<region>
hivel=127
key=C7
loop_end=279537
loop_start=120230
loop_xfade=60177
lovel=0
lpc=jc7vQbisr8DykrbApMlTQH9FfUCkbxNAVNcPQXv/wUAolshANgwrPxofBECy7g/BlAM6v22lQEGCY9ZAXncZQD+SGEC2t8A/fCPyv4ksvL+qgVBA5hrJQHy2zT89d9DA
lpc_rms=-11.65
sample=Flute_sustain_PP_C7.opus
</region>

<region>
hivel=127
key=D#4
loop_end=290216
loop_start=124823
loop_xfade=62476
lovel=0
lpc=9ZJCQoBb/MI+g9lC0TP1wRalqEDbcgHBgVBAv5/iVEBCDwhAQi9mwErdtz8DjYO/q0z8P8mZd8A+LtRA24OwwFq8mUDnSnHAnDAVQO89L8BsABtAheApwBY4LT/KDWs/
lpc_rms=-30.83
sample=Flute_sustain_PP_D#4.opus
</region>

<region>
hivel=127
key=D#5
loop_end=294285
loop_start=126573
loop_xfade=63352
lovel=0
lpc=Rb0UQrOHicLMlA9CblzGwAs/TUA3pU9BbQIRwf8KZ8D1L7M//1bTwKtKPEFYHZ7A0ZqtQD1yzsBiUTVAORyEwM4GXkCMg25AhyXtPJk/tL+WoeI+RPYKwG4knsDp4/tA
lpc_rms=-23.65
sample=Flute_sustain_PP_D#5.opus
</region>

<region>
hivel=127
key=D#6
loop_end=308767
loop_start=132801
loop_xfade=66470
lovel=0
lpc=8fXEQWqpWcGMZKO+8CbPP59DXcAj12O/jB+gQL5CTcBPWSlAe6Snvwq4BkDcGlQ/1Sy8PqZQFL8BM8w/9wcOvoskQkAUR5+/pNkxv51ibcF8F+U/s1m8QIPSrL/qm3VA
lpc_rms=-25.74
sample=Flute_sustain_PP_D#6.opus
</region>

<region>
hivel=127
key=D4
loop_end=288944
loop_start=124276
loop_xfade=62202
lovel=0
lpc=UUCZQuz7RcMH8BxDvxLOwdFrHEGXZ9rBhTnTPqwLMkB3hyBBgMCgwASj/z/rt/bAvxIKQbI/LcALspk+7k02wDFvBUCt1C6/jeU2QBeYGcArKxxApSrbv3tiVcDb90hA
lpc_rms=-27.53
sample=Flute_sustain_PP_D4.opus
</region>

<region>
hivel=127
key=D5
loop_end=274560
loop_start=118089
loop_xfade=59106
lovel=0
lpc=k+IyQg9LqcLI7QNCocxUQVGxXkA9TYq+CprSwBh7ssD2JhBBLT8Vwd/3pUBebA3AQWVAQRleLsFPMGJArFIMwET72r+Nv8M/0xGAQMG9Sb9/ZaNAQpa7wGV4CcH/Px1B
lpc_rms=-24.61
sample=Flute_sustain_PP_D5.opus
</region>

<region>
hivel=127
key=D6
loop_end=317780
loop_start=167203
loop_xfade=41090
lovel=0
lpc=+HAgQnwF5MFUpZU/mPPDv8uF0LzAtFhAWu7vvycA4j8tQgK+0qqdv72br0B3UorAcollQBdF9b/yNidAIjaHv1Rd/T9NamW/4+4yQKPUvr8RQKjBbUWSwPBei0H1ll+/
lpc_rms=-21.60
offset=48626
sample=Flute_sustain_PP_D6.opus
</region>

<region>
hivel=127
key=E4
loop_end=295763
loop_start=127209
loop_xfade=63670
lovel=0
lpc=D+t3Qh5JJMO+zw5DuRshwtWhG0FrATfBvuDqvyIFlr/2/MxAfwA2P8znmD8F9NDAyMNkQCP9b8Bak5BAgzHTv4dIDEBkcJu/xd+0PgJ5DMDb1uA/6tYaQJJq4sD0YopA
lpc_rms=-28.73
offset=10314
sample=Flute_sustain_PP_E4.opus
</region>

<region>
hivel=127
key=E5
loop_end=285301
loop_start=122709
loop_xfade=61418
lovel=0
lpc=0GM1QgiskcKIjpBBqDkVQeAdcUGOqzW/hY/7wJ43A8ETo61AMaq9v5Aa6UBWHifAKY7dPwbvdsCr7JJAeRVUwOTNZ0Ch14rAZtamQOdFqz9aFfA74UWPwM5xGMCcsuJA
lpc_rms=-21.39
offset=5795
sample=Flute_sustain_PP_E5.opus
</region>

<region>
hivel=127
key=E6
loop_end=309534
loop_start=133131
loop_xfade=66635
lovel=0
lpc=6gP6QdpbWsFQoaHA216dv3g0CMAxI4pA56ZRQFZQKcDNfYNAMGE1wFS4jkCGjwLA2KQwQFVwrr+akxpAWlShvtIZXUBNz2/AJW6VwXnI8b96SV9BGZGavipQlkAY753A
lpc_rms=-25.16
sample=Flute_sustain_PP_E6.opus
</region>

<region>
hivel=127
key=F#4
loop_end=289841
loop_start=124661
loop_xfade=62395
lovel=0
lpc=PxKhQs6sXsPbh09DiBqPwpBQo0HQBYDBU6SLv/gVi79YBxNBLqagwJEchj28Hn3A6EDhQEUi7cBriCBB/y0GwZKOq0CVQ63A12NAQBJJkb5ESR9AqhULQWFtuMHJzUVB
lpc_rms=-25.41
sample=Flute_sustain_PP_F#4.opus
</region>

<region>
hivel=127
key=F#5
loop_end=294625
loop_start=126719
loop_xfade=63425
lovel=0
lpc=w8JaQszKpcLsaQJCLL3swGKZykE72InAMJbtwE1sAMGIvTVBW/NlQIwwKsCrOMC+lZlKQBmKpMAprj5B2KQDwQY2fEA6fJi/YtMBQWLS9cCVR05AZqPOPxvwfr3xC5FA
lpc_rms=-21.41
sample=Flute_sustain_PP_F#5.opus
</region>

<region>
hivel=127
key=F#6
loop_end=296397
loop_start=127481
loop_xfade=63807
lovel=0
lpc=RIkIQjQ1N8Fge0/BbFE+wB0uI0AkVu1AUS9hQGzEar5hF4RAA/QtwMWVU0A4hynA8jqJQMoKEMAvKltABfAjwEGlucFMPQ+/VKddQZs18kDlacG/04/GwAT1TMCY6da/
lpc_rms=-21.70
sample=Flute_sustain_PP_F#6.opus
</region>

<region>
hivel=127
key=F4
loop_end=292326
loop_start=125730
loop_xfade=62930
lovel=0
lpc=wuduQnvjI8MTmhdDay5SwgTRpUFcP53BW3aGPxwdOMBsuklBddcdwUKapkDffUfA9RqSQGW41MCAnK5A/CG+v77BTj9sLrvAMU7YQALiy7/Nume/+EOtQJ3TI8G6DKtA
lpc_rms=-28.20
sample=Flute_sustain_PP_F4.opus
</region>

<region>
hivel=127
key=F5
loop_end=302724
loop_start=130202
loop_xfade=65169
lovel=0
lpc=B/8EQr2FdMInjP9BIVFYwGfzIUGvuw3AFM4awTobqUBbySfARktcQC2pjkBYwMrAkwK9QEA18cAgjLxA1mhDwN/BtUCRzde//pbpv45Qlr+MJy5ArPkiQMq/k8CcRn1A
lpc_rms=-23.85
offset=15556
sample=Flute_sustain_PP_F5.opus
</region>

<region>
hivel=127
key=F6
loop_end=288612
loop_start=124133
loop_xfade=62131
lovel=0
lpc=PPZSQlwz5ME5gSDBs5qQwPJihz+iMCBBWNelQJHowT7lizNAs2wfwIdWoEC2nCjANYdgQIJ1n78aIzo/rgTCQAeO58C2NQvCkjzKQGlgpUHmfb5AD3OMv950r8CkPezA
lpc_rms=-18.70
sample=Flute_sustain_PP_F6.opus
</region>

<region>
hivel=127
key=G#4
loop_end=287851
loop_start=123805
loop_xfade=61967
lovel=0
lpc=ljWHQg9KNcMwpiNDCyw8wry5AEHnS2vBxL9rwN37y0DQ1u9AP0sdwSoOvkAOd66/t/NSQBMvF8EoLSBBFRsgwZ5ASUFEHRbB3zydP2Khhz/r/lhAVl40P1ncGsGJmtBA
lpc_rms=-24.34
sample=Flute_sustain_PP_G#4.opus
</region>

<region>
hivel=127
key=G#5
loop_end=285830
loop_start=122936
loop_xfade=61532
lovel=0
lpc=GP8dQqRAS8LFe6pBoKbmwIqzKUFOdAjAkHkHQDym0j9Ju5pAbZfIwCYDeEA049HAI13+QD1rBT7CYURBLQT9wK9ohL/MQITAr//XQGLaXz+BWBNAT618QNcv2D4FCgLA
lpc_rms=-21.99
sample=Flute_sustain_PP_G#5.opus
</region>

<region>
hivel=127
key=G#6
loop_end=304509
loop_start=130970
loop_xfade=65553
lovel=0
lpc=p0AxQl4hlcFjOk/BsMqmwKadPD8ZAZdAigwjQeVbjEA1SlE/h87Fv5UFBkAouuK+2WurQEYW6sAlYY7BXb59wTkinEF72jxBG/SrP9mjdsCK1f7ABqnOwPDWND5sNYm/
lpc_rms=-18.88
sample=Flute_sustain_PP_G#6.opus
</region>

<region>
hivel=127
key=G4
loop_end=306076
loop_start=131644
loop_xfade=65890
lovel=0
lpc=T1WQQvL7QcPygTBD7bqJwinrIUJp5t7BNBNvwFHOiUDoWEVAmef4wKCi80Dmo+i/6GmkQB8XysBsmjRAkq1TwN5BdECUq1vAUFHyP2ekCz5dn0tAHDeUwC3AGL/A8xJA
lpc_rms=-25.77
offset=13041
sample=Flute_sustain_PP_G4.opus
</region>

<region>
hivel=127
key=G5
loop_end=287704
loop_start=123742
loop_xfade=61935
lovel=0
lpc=zRwFQjdqBcLBbSDBuPM3QYJNIEFVKwBAiVQEQM5TCMFoN3a/zhIkQLVwkEDJOJs/GomqP948TL6yrF/A4WBRPXTYAED2uvZA9wuKvAP958DZsnm+XWixQDIjvkDSZX/A
lpc_rms=-22.34
sample=Flute_sustain_PP_G5.opus
</region>

<region>
hivel=127
key=G6
loop_end=297748
loop_start=128062
loop_xfade=64098
lovel=0
lpc=3ySZQhIUGMI17eLAS5SfwQIeQkHsoN1B5dwuQcylqcCRHHtBuJ3YwIvsNkHfU3bAoKn8QItllD9pEgVBYcVXwtzCDsBHNPdBplV2QZuRe0ASQajB4gGOwXPt/UBREK3A
lpc_rms=-15.49
sample=Flute_sustain_PP_G6.opus
</region>
</group>

<group>
group_label=MF
lpc_hicc1=84
lpc_locc1=43

<region>
hivel=127
key=A#4
loop_end=311931
loop_start=133365
loop_xfade=67452
lovel=0
lpc=4UziQcN6jsJ3A1lC5c9EwA7h48CcHx5AO9jewBcioL+fxxdBNMNWwAkv9b3Rj0XAcwBwQKu/D8D7jQNAQOQ+wKjIrEDMQ7zAqG82vElVhkDBTRfACEiDQBj7wMCRFCJA
lpc_rms=-18.32
offset=10790
release_start=302190
release_xfade=12800
sample=Flute_sustain_MF_A#4.opus
</region>

<region>
hivel=127
key=A#5
loop_end=288789
loop_start=129606
loop_xfade=65551
lovel=0
lpc=35fJQS3MxsHOlK9AYHO8QB18MMAp9p5A9sHhvsgqBj4p7mFAdUarv5jjBL6PA7c+vKbfQDZKET3g/FO/gpTuv0hJT0CQ/ng/rYsaQF8LRz+yLLM/JWxaP9ByJEDuoJbA
lpc_rms=-15.11
release_start=296295
release_xfade=12800
sample=Flute_sustain_MF_A#5.opus
</region>

<region>
hivel=127
key=A#6
loop_end=282761
loop_start=127352
loop_xfade=64411
lovel=0
lpc=3ONjQjTousFyYUHBqsr4Pz+U+r0s+Q1BSZ2GQZ0fVD/sHY++dT4cQIde+j/A10lAbKpbweGkDMIsbIJBmYBjQS/+MEBGYn6+3CNZwfDOysDS+yS/ovI8wBHibUAaOe69
lpc_rms=-7.65
release_start=290428
release_xfade=12800
sample=Flute_sustain_MF_A#6.opus
</region>

<region>
hivel=127
key=A4
loop_end=305059
loop_start=130427
loop_xfade=65966
lovel=0
lpc=ue/OQfi+isL3UoNC03TDwV+ozUCMXETACdpZwAu3F7/N69xA8z2IwCGnhkDfqyLBMCMnQfnhPMBi4Ow/22vCwAuYlkD6po3AB6/FQGPKCcCeDna//4YawOhTmECkM/+/
lpc_rms=-20.25
release_start=300171
release_xfade=12800
sample=Flute_sustain_MF_A4.opus
</region>

<region>
hivel=127
key=A5
loop_end=289670
loop_start=128169
loop_xfade=64824
lovel=0
lpc=LOyQQdwTo8HFPGVA8DyWQPAcxD+ttx0/af/wv3UeI75/1J5AdycMwK+8az/1Iz7AJ2+gQNKjez/hj+M/toV7wLjucz+oO/g/iNU5QGUpA8BaM3y+DeEKQEbujkADS5TA
lpc_rms=-16.37
release_start=292968
release_xfade=12800
sample=Flute_sustain_MF_A5.opus
</region>

<region>
hivel=127
key=A6
loop_end=278196
loop_start=126058
loop_xfade=63756
lovel=0
lpc=8K6HQohl7cGUbcPArBfZP2fcIUBH7YxBP7ydQeE84kBUuxVBnHo9wE1VEkEUvntApiaHQWxr68Fna8TBemf/Qe/EGUGuB+ZAc4phwLygKsF3wRDBlZUFwCwWlkBsy4FA
lpc_rms=-9.40
release_start=287005
release_xfade=12800
sample=Flute_sustain_MF_A6.opus
</region>

<region>
hivel=127
key=B4
loop_end=296754
loop_start=126877
loop_xfade=64170
lovel=0
lpc=zKCmQYFaSsLBaypCO4hBwWzOwL8Mt6NADlO/wEeJB0BIPTC+VbO9v/s6qUC9ArzAqH+jQI/xW8BhFytAWn5OwL98yz+ij5y/U/hhQBMG1b+uALK+6Jbrv/8KhD+WR1A/
lpc_rms=-19.42
release_start=289384
release_xfade=12800
sample=Flute_sustain_MF_B4.opus
</region>

<region>
hivel=127
key=B5
loop_end=301232
loop_start=132713
loop_xfade=67122
lovel=0
lpc=XV7zQTnS9cEMPVlBiFcBvuKLzL+66XBANPHjP8W0dsAr5aNA0U8owN2FHECKQbi/zljfQK5/fcBXRV0+sH19P1ONIkDCTru/7SY0QLrCmz8juKe/R5KIP5nCgUDKyDfB
lpc_rms=-12.22
release_start=303266
release_xfade=12800
sample=Flute_sustain_MF_B5.opus
</region>

<region>
hivel=127
key=B6
loop_end=293539
loop_start=130240
loop_xfade=65871
lovel=0
lpc=fswoQqB5lcFOQVLAbf/rP3Dv2L+sTjVBZDrsQNoxh7vX/LdAmGP0vwsrwkDJxRfBOVSWwdogM8Ba02BBYfeaP6m33L1pIQTBKnGIwLt0079TjxvA6nRPvy8VnkAdhmLA
lpc_rms=-9.43
release_start=294225
release_xfade=12800
sample=Flute_sustain_MF_B6.opus
</region>

<region>
hivel=127
key=C#4
loop_end=306457
loop_start=131025
loop_xfade=66268
lovel=0
lpc=Q6MDQpAHq8LY3aJCygw/ws6AA0Ijn//Add7TwM/EV8BKoRZA6/VgvjHmsECc5EXAzncSQGv+psBa55pAtpmowHIbv0CKyoXA5QJqQFZbGcDGB56/sbkRQH95vb8y1DM/
lpc_rms=-24.22
release_start=297422
release_xfade=12800
sample=Flute_sustain_MF_C#4.opus
</region>

<region>
hivel=127
key=C#5
loop_end=307273
loop_start=131374
loop_xfade=66445
lovel=0
lpc=TvCiQY/mRsI7hSdCjt44wadL2b5uoxNA85uCwCC8oT98DhVAxKJbwIwzhUCAlinAm5joPywkIMCqypY/dTKMv5QCM0BXq6O/QhSYPisl6L/nQPk/l6R4QG8wEcFThaRA
lpc_rms=-19.54
release_start=302622
release_xfade=12800
sample=Flute_sustain_MF_C#5.opus
</region>

<region>
hikey=C4
hivel=127
lokey=C4
loop_end=297860
loop_start=127349
loop_xfade=64409
lovel=0
lpc=szS+QfYzdcKdBWhC0Mf2wfmBgEHmuP4/lRVJwVoNnkBkuyS/Dr56vuqkVUCdnoHAknmtQCa06sAkEu5AcHTqwL8TwkAM1U3AtgM+P791uj9vMl3A5eCRQH51b8D6H68/
lpc_rms=-24.78
release_start=290038
release_xfade=12800
sample=Flute_sustain_MF_C4.opus
</region>

<region>
hivel=127
key=C5
loop_end=315055
loop_start=134701
loop_xfade=68127
lovel=0
lpc=1Qf7QTx+msIehYBCAgqJwesHa77XAw1AH1qTwGEW+z6ojnRAW0RdwIsNVUC/O5LA+vwDQUb6IcGeVQVByqDrwMHNl0AFaoG/Hfv/P9OXSsDyHkBAoXAsP195zsAqiJdA
lpc_rms=-16.75
offset=9786
release_start=307230
release_xfade=12800
sample=Flute_sustain_MF_C5.opus
</region>

<region>
hikey=C#6
hivel=127
lokey=C6
loop_end=304928
loop_start=135824
loop_xfade=68696
lovel=0
lpc=73fZQQk+7MF5n4tAnEvbQIPsnr9M4iFASdKVv6nAjz9GFghAZTBRwCRHtz/jZLpALKgaQEoZ5sDQZ4A/6tOfQBCvrD9Co9y/wPgOQMWear5XhBpAoDoqwCnYGMHCPgRB
lpc_rms=-14.10
offset=13770
pitch_keycenter=C6
release_start=310039
release_xfade=12800
sample=Flute_sustain_MF_C6.opus
</region>

<region>
hivel=127
key=C7
loop_end=271068
loop_start=123457
loop_xfade=62441
lovel=0
lpc=l9wuQsoA8MCTdx7BMV4RPyEDjcCB4EBBEiifQby+r0AM3+5AIa8pwMxmYD4Qv1vBk61awMoblUHLkT5B6YUaQXwnJUAJQw3B7UanwCV1tT7QhqlAIhs1QfZNgkArDETB
lpc_rms=-8.98
release_start=271723
release_xfade=12800
sample=Flute_sustain_MF_C7.opus
</region>

<region>
hivel=127
key=D#4
loop_end=298481
loop_start=127615
loop_xfade=64543
lovel=0
lpc=k8s4Qq8l88JJduJCpQZPwikZwkHTRIrAcIY8wGJ6VcHZyEJBW//TwDoWNEGJhu7AXoHUQPviAcG9wYpAKvhYwOrDcUC0NYjAJ2qSQKGQgr85tc29UixBv0Nm7b/9zv4/
lpc_rms=-22.58
release_start=293950
release_xfade=12800
sample=Flute_sustain_MF_D#4.opus
</region>

<region>
hivel=127
key=D#5
loop_end=290505
loop_start=124205
loop_xfade=62819
lovel=0
lpc=Sa7NQY5ALcJS0PpACGudQRl/mb+DCP7AHIHxP81xksDQcNFApCGsv3xhWj7euNS/EpZOQOFpk8CB00tAW6Btvs4yHT80v4G+SFzbP9/0/b9ytWdAeG5hwPoGH8B7opJA
lpc_rms=-17.65
offset=3818
release_start=284005
release_xfade=12800
sample=Flute_sustain_MF_D#5.opus
</region>

<region>
hivel=127
key=D#6
loop_end=278239
loop_start=129943
loop_xfade=65721
lovel=0
lpc=dQWgQSzhLsELgjHAWeb0P1tc5z/7Gm6/+zlMQLwjAMDUVUFAm77iv1PyN0D9i3+/ZA4BQPygZbyNe0M9xevrPzUaDL/bpxRAdgxpvzUMRsEXqHc9UiQJQYHpDL/xIKe/
lpc_rms=-16.42
release_start=291454
release_xfade=12800
sample=Flute_sustain_MF_D#6.opus
</region>

<region>
hivel=127
key=D4
loop_end=300020
loop_start=128273
loop_xfade=64876
lovel=0
lpc=nJL8QUFCrsJKC7dC5ipMwuuvrUGdKhPAlNzFwG7UtL77YkVATLtDwABnr0AO34HAiTCoQB1CC8Fz9/RAcnz5wFb6G0EcourAJ8KeQJO7scCyCJVA8TlGwJMetD/K5dA8
lpc_rms=-24.63
release_start=291927
release_xfade=12800
sample=Flute_sustain_MF_D4.opus
</region>

<region>
hivel=127
key=D5
loop_end=292514
loop_start=129206
loop_xfade=65348
lovel=0
lpc=yxuZQSCAJMLfgOZB42MzwHKn1sBxrMJAyQuDPKb/ncBsmllAAZsIwNUabEBRlRHANtwrQOIAgMCeMO4/VLeKv1m1EED09BXAfyOFQPJQYcBg4R5A1HOLv1U9Z8A6T35A
lpc_rms=-19.55
offset=5075
release_start=295441
release_xfade=12800
sample=Flute_sustain_MF_D5.opus
</region>

<region>
hivel=127
key=D6
loop_end=292465
loop_start=131579
loop_xfade=66548
lovel=0
lpc=qm+vQX2bR8G/dYXAXOtiQOh007/s9o4/aZM7P7l2f7/LGq0/0rR/vx+lCEDZfba/guK1P7WV+b5BouY9kbLMP27hrL+IyZo/rcgoPxnB8L7Q7j3Bfs2JwFBsNkEXfMu/
lpc_rms=-19.25
offset=13746
release_start=300456
release_xfade=12800
sample=Flute_sustain_MF_D6.opus
</region>

<region>
hivel=127
key=E4
loop_end=299186
loop_start=127916
loop_xfade=64696
lovel=0
lpc=+LkQQifyxMIr5bxCzb8Uwk0fDEFOVZxAFQihwbPXekHsXqzAEvm5P9j7DT8A4hvAXs4HQQNvOcFslQlBNF34wHoI3kA/8iHA77XLP7V5JMCE3xq8zDWlP6iL6j6aaD2/
lpc_rms=-21.74
release_start=293809
release_xfade=12800
sample=Flute_sustain_MF_E4.opus
</region>

<region>
hivel=127
key=E5
loop_end=291856
loop_start=124782
loop_xfade=63111
lovel=0
lpc=Xd+yQYafFsIIdX1BuRqLQEZC67/MToA/VlyPv3rmJ71b7MI/KMv+vxM3QEA2wYTAed+dQLxBY8AJ7kJAY8o6wA1uNEDxUnw/S/7svpJ/6z0Zmga/JHxrPqX/GMDdI4BA
lpc_rms=-18.42
offset=2577
release_start=288394
release_xfade=12800
sample=Flute_sustain_MF_E5.opus
</region>

<region>
hivel=127
key=E6
loop_end=280912
loop_start=131661
loop_xfade=66590
lovel=0
lpc=qzkmQo/p28HIUkXAx/zrv4UEMT/IuiVBENFjQIQ7M8CFKshAHGlbwB9YwUBSbd2/UqlpQH/eTb9utGxA1K2Uv/dPmkB3sSi/qkv3wT6DJUHrNo1Bh5QcwCfEr0BMJDXB
lpc_rms=-13.16
offset=14166
release_start=300661
release_xfade=12800
sample=Flute_sustain_MF_E6.opus
</region>

<region>
hivel=127
key=F#4
loop_end=308327
loop_start=131824
loop_xfade=66673
lovel=0
lpc=AIHAQafebMLwaUlChuRrwXM5rMCAF2JB5sQ3waaMS8C46ElBars7wXJJ4EBj6UvABWz6QAASKcF61oNA69f8PuhdJsAmujhApeixP/+tvMDZTHZAqZKwQDR5FsE+eXdA
lpc_rms=-21.15
release_start=303643
release_xfade=12800
sample=Flute_sustain_MF_F#4.opus
</region>

<region>
hivel=127
key=F#5
loop_end=290210
loop_start=136678
loop_xfade=69128
lovel=0
lpc=1hCiQRc+6MGU9RJAKSNRQVKhBsCinHC/kYrJv4B8GcDJ26NAqmdNwHDHKEDQqzzAJWsjQL8A9r/hiSZA4w4hQN49u78IyPq/NrP/PreqHb69tHY/yKIUPtC+Gz/LAdG+
lpc_rms=-15.71
offset=11999
release_start=300647
release_xfade=12800
sample=Flute_sustain_MF_F#5.opus
</region>

<region>
hivel=127
key=F#6
loop_end=274266
loop_start=123774
loop_xfade=62601
lovel=0
lpc=goHxQSEVLMER0C/A9q83QCivF8BWJ/JAEnu8QEAhkT8NVbZAc/+KP63erkCHPzI//dKVQODc0D8+HJ1Aym8fP+U4lcEesRFA25EhQX+jCUBr7hNApZWiv7p7fMCEY8a9
lpc_rms=-16.17
release_start=282450
release_xfade=12800
sample=Flute_sustain_MF_F#6.opus
</region>

<region>
hivel=127
key=F4
loop_end=309414
loop_start=132289
loop_xfade=66908
lovel=0
lpc=wfHGQeXeb8I0nDZCiEsVwURsk0CUhKbAhlTFv9PLG8AUJPJAXbDjwG4a2kDG1sXA/dTOQKu5q8DyBo9AcBuRwJssbUCuW5TAeTGCQEjeWb8TZxFAnyagwNvSSECCgfC+
lpc_rms=-23.08
release_start=288959
release_xfade=12800
sample=Flute_sustain_MF_F4.opus
</region>

<region>
hivel=127
key=F5
loop_end=297135
loop_start=127039
loop_xfade=64252
lovel=0
lpc=6ErPQbZoJ8L5PHhBWWvTQBnDoT7Dl0I+HJ1MwP4hhj+Gfps/YS4dwH4amUDAIz/ANQeYQPLZmMDzWzZAj+efv7ZsTkDRlAvAQwx2PwG66D9IwM0/CQsNwBtnmcCkautA
lpc_rms=-15.19
release_start=292145
release_xfade=12800
sample=Flute_sustain_MF_F5.opus
</region>

<region>
hivel=127
key=F6
loop_end=282615
loop_start=132058
loop_xfade=66791
lovel=0
lpc=Cjn4QdI1kcHN7xW/nDMoQBDCM0DWZ8lAiVmhP+RK7D+fsoBAkM3ave8vuEA6JWO/ElWXQONH9T80YMc/XX+bQKjG57/4NpzBd2oJQR8FIUEgjiK/pd4pwBqkyr9L3iA+
lpc_rms=-16.89
offset=8050
release_start=299399
release_xfade=12800
sample=Flute_sustain_MF_F6.opus
</region>

<region>
hivel=127
key=G#4
loop_end=306412
loop_start=131006
loop_xfade=66258
lovel=0
lpc=oLOiQQ3IRMKADCJCXT9XwZ5sqUD+wu89epyawE16A8BpT49AFE0svyoj1D+nSD2/cMjgPwxX8cAiP95An7O+wCr98UCTlonAeNxjQHFuX8B9KyHAYhRoQL2SBz87djO/
lpc_rms=-20.95
release_start=295553
release_xfade=12800
sample=Flute_sustain_MF_G#4.opus
</region>

<region>
hivel=127
key=G#5
loop_end=282055
loop_start=125370
loop_xfade=63408
lovel=0
lpc=/fiUQRF7kcHXqeK/8AcHQctwjz8+cLa+VEMRQPrQLcAYyHpAIXB0v+0+7j9twyHA3nt3QGMOzL22nkxAcvA8P1EEGcA+F64+hTUCQPV/7z9T6rm+IG2oPy1CzT9H0Ps+
lpc_rms=-17.21
release_start=287670
release_xfade=12800
sample=Flute_sustain_MF_G#5.opus
</region>

<region>
hivel=127
key=G#6
loop_end=292507
loop_start=130711
loop_xfade=66109
lovel=0
lpc=/OYoQqL3jMHlDezA0CFOv86tiEBG34NAkhwuQVrLVECGie1Ahbe6wJRX2kA8NIw/UtcoQB7Z4UBgysrBcSAgwURDsUHW9FlAoS7iP4bZy7/5ItPARNYNwFN6nMCekJ1A
lpc_rms=-10.98
release_start=297894
release_xfade=12800
sample=Flute_sustain_MF_G#6.opus
</region>

<region>
hivel=127
key=G4
loop_end=305047
loop_start=130422
loop_xfade=65963
lovel=0
lpc=nZC1Qd1yaMKmZUVC01kPwRIl3MDuiqRAhVuQwHtCsL/hTgFB8/cHwa1QxUBPMovAxynBQLorBsHHQshAQW5CwIRpUkCJvknAW+QMQM8yQMBegFNA6w0awLRQA0AyyoK/
lpc_rms=-19.71
release_start=292602
release_xfade=12800
sample=Flute_sustain_MF_G4.opus
</region>

<region>
hivel=127
key=G5
loop_end=282642
loop_start=130389
loop_xfade=65947
lovel=0
lpc=ImbOQWvMBcLUABZBoEfEQKuhiD/Aw5W/O2QTQDxQOMANqrFA3FoWv2rmpr9FSwM/ETp+P710iT9RCEZAn28tQEUnV8BKok8/SbRgv2PliUCGoJu/fdEEQIvjab5v8i5A
lpc_rms=-13.33
release_start=286955
release_xfade=12800
sample=Flute_sustain_MF_G5.opus
</region>

<region>
hivel=127
key=G6
loop_end=280500
loop_start=124360
loop_xfade=62897
lovel=0
lpc=uCuRQpGf9MEKxI3BCP8WvlW8JEE90itBY0yjQV8kCj+nZjdBrlAuQJdEu0BSnQlAy+TwQN0dHECB3yBBMTJSwuJGgb+HGhZCtuzOQEbrAMDy2AbBOrI/wVBn2r+sRoTA
lpc_rms=-7.78
release_start=281300
release_xfade=12800
sample=Flute_sustain_MF_G6.opus
</region>
</group>

<group>
group_label=FF
lpc_hicc1=127
lpc_locc1=85

<region>
hivel=127
key=A#4
loop_end=302254
loop_start=129228
loop_xfade=65359
lovel=0
lpc=9LuPQbgDLsJuEQ1CDv8cwWiaO0Bkh3m/wUEMwMPPKcA3RXtAo42/viRlPECK5LnAN6aPQPUmgMDGrrNAujptwEETob6yjTI/1MDdPjwpTb9ye1E/rbLOP+l6ecCNUQxA
lpc_rms=-17.92
sample=Flute_sustain_FF_A#4.opus
</region>

<region>
hivel=127
key=A#5
loop_end=291816
loop_start=124765
loop_xfade=63102
lovel=0
lpc=8Bi6QaoyxcE3AEtBydalQLBYZsDg3DtAff2uQA26gsDBy+9Ak37mvwKGcUDUSum+GnqJQK4MsD+Qf6o/CJaMPw68bUDCxNA+L1zUPz1VYUBGy2A/l+QXv+y2GkHKtb3A
lpc_rms=-10.75
sample=Flute_sustain_FF_A#5.opus
</region>

<region>
hivel=127
key=A#6
loop_end=304397
loop_start=130144
loop_xfade=65823
lovel=0
lpc=GykcQlP1psF/OU++HUC7vx8nlEA2E+lAzxkeQcn+gEC4FmFA+MpHQPDERUBxkRNBB3mhwJ2ftsGDV7tBxNLBQLEJ00CN0Di+07IpwNZeS8DHVgxAijkmPyEyf0AJiqA+
lpc_rms=-12.64
sample=Flute_sustain_FF_A#6.opus
</region>

<region>
hivel=127
key=A4
loop_end=293194
loop_start=125354
loop_xfade=63400
lovel=0
lpc=hobAQdb8cMKswVNCWpGBwao11L8ZhU1AK2vovw+DxL4lQDRAYH6fwHAt2kAl/OHAuj+1QFZwosATvaJAJvQKwBgqsj52sEbApLWqQP7bc8A4Jn9AOnR4wGtLF755gqo/
lpc_rms=-17.19
sample=Flute_sustain_FF_A4.opus
</region>

<region>
hivel=127
key=A5
loop_end=307308
loop_start=131389
loop_xfade=66452
lovel=0
lpc=Dj/gQUpM+8E6nlBBxhQ/QFd3fUBQv6o/fA8uwMBHjED8moc/Mlm6QDwvOcBCwo8/5J0xQBQ/rUBnZRq+C+nTvjwrgz+p6a1AaT8TQL9m6L+bEks/SLeAQM23zkDWhCrA
lpc_rms=-12.88
sample=Flute_sustain_FF_A5.opus
</region>

<region>
hivel=127
key=A6
loop_end=285783
loop_start=122186
loop_xfade=61797
lovel=0
lpc=IrBGQhc+tcFARPrAj7EtQfFkdr97ooBBgeXPQMUZT0AHAS9Br3WJv3Y0OEGOmIQ/8/RlQYntlcFJoanBXdsCQrhHB0DbI/g/ol7nPsdxBMGI9ldA6wkowLZ1EECJ1xM/
lpc_rms=-9.54
sample=Flute_sustain_FF_A6.opus
</region>

<region>
hivel=127
key=B4
loop_end=293690
loop_start=125566
loop_xfade=63508
lovel=0
lpc=s16DQcSnG8KYXQRCSHd0wfPCS0GumBrBuNRVQGzDm8CiGwBBkdb1wDzc/0CQgu3ADSbXQNo528DQ6ZVANHIFwLFzVEDef1jA56ZuPj+2Fb/0kiVALJyIvSpE97/pqy0/
lpc_rms=-20.10
sample=Flute_sustain_FF_B4.opus
</region>

<region>
hivel=127
key=B5
loop_end=311434
loop_start=133153
loop_xfade=67344
lovel=0
lpc=lST3Qd/DFsItlXZBQC2gQMD2tsCO9YtAgGuOP5BtY8BJnM5AEH6jwHYqwEDRt8XAyWcZQRSqzcCXM3pAN3mav5ICTEBQPy3AmxaNQOykq79Jr4M/gXaMPymYzr/8yZLA
lpc_rms=-6.37
sample=Flute_sustain_FF_B5.opus
</region>

<region>
hivel=127
key=B6
loop_end=308288
loop_start=131808
loop_xfade=66664
lovel=0
lpc=L9SlQZcQwMBf/jDAa4JMQPmTlsB2ObtAxa/AQD2icT/LH8VAeF24P5J4zT8lrry+Tx8wwZ9yMz/uIQZBCVKQP/Htm0Dv7YW+xgxvwFwIoz8LtizAo1qDvb8jaEBD2hE+
lpc_rms=-18.14
offset=8633
sample=Flute_sustain_FF_B6.opus
</region>

<region>
hivel=127
key=C#4
loop_end=301763
loop_start=129018
loop_xfade=65253
lovel=0
lpc=eaizQa2CXsJCgEBCc3etwfp5dEHMYPrAr23yvgfydMA2VeZAlnLJwJzF+UB4dgLB0eLNQCErAMHd8PZAQG87wOjiFkAvuHXAV8NXQD8TGsCSNKs/SnO1v1XcxT9wvcK+
lpc_rms=-22.22
sample=Flute_sustain_FF_C#4.opus
</region>

<region>
hivel=127
key=C#5
loop_end=298823
loop_start=127761
loop_xfade=64617
lovel=0
lpc=v62zQXG4VcKI2ipC5BtFwSxAqkDmlZTAocn8P3zuwcANaQNBNH65wJ/T80C0AxPBMcrYQFSctMDBs7xArSQ1wLnmwb+LNH1A1MldwDW0fT8CRCc/gjiEQAcaE8FpPKlA
lpc_rms=-16.15
sample=Flute_sustain_FF_C#5.opus
</region>

<region>
hivel=127
key=C#6
loop_end=295491
loop_start=126336
loop_xfade=63897
lovel=0
lpc=77bIQe0YgsGnPeu+lINhQCR+6T5hZ31AFhLiP5WgR0Axwi9AJB6AP/jxe0CqaeI/76h6QI+wfj+97lRADk8aQGX+JUCGdxJACCFYQKH/sz979F1AADUnwcaFgcA+hmpB
lpc_rms=-13.61
sample=Flute_sustain_FF_C#6.opus
</region>

<region>
hikey=C4
hivel=127
lokey=C4
loop_end=305823
loop_start=130754
loop_xfade=66131
lovel=0
lpc=9rmzQSq5XcJQmURCH77IwZAVjUG8Jg/BfEzJPwBfScAiAus/ufLKvyz+cEAAKYvAfsHtQE5rGsGAU/hAWjiIwBrVGUBXSEfAsr5OQBs0LsBccytAO17Qvx5a3T5IsFQ8
lpc_rms=-22.00
sample=Flute_sustain_FF_C4.opus
</region>

<region>
hivel=127
key=C5
loop_end=302234
loop_start=129219
loop_xfade=65355
lovel=0
lpc=kjiPQapbMMIY5xZC0U06wbBG+j50RxxAXEYawEfOi79ppz5AcUy3wLsC80DnC6TABGnVQLlcFsH8FqhAfTYcwL+FeEAOtsi/45CvPs5YLsAAdQdAA+BePnD1P78/ado+
lpc_rms=-17.77
sample=Flute_sustain_FF_C5.opus
</region>

<region>
hivel=127
key=C6
loop_end=298591
loop_start=127662
loop_xfade=64567
lovel=0
lpc=FhDPQXuA/8H1zntBNFkmwL3IOj9/ClhA5h/1vj9F+D954Ve9fnwhQLRLUMDR1tRACsDyP0hMqsAngJFAzBmBP4LYzD8ew6U+z80LQH9OL78VrghAxvEbQLuVcsGPey5B
lpc_rms=-11.15
sample=Flute_sustain_FF_C6.opus
</region>

<region>
hivel=127
key=C7
loop_end=295776
loop_start=126458
loop_xfade=63959
lovel=0
lpc=ZYtZQRB/I8DwheK/d4MfQISIoT7TWAs/J+GhQJKeTD9ifVVAwZMJPxmBHUBYI5bAPvafvzshp0CIU+k/60ObPkEfFkBmmoG/XPTavrAe7b5Ufgk/dSi0P4tKLj5jeFvA
lpc_rms=-20.71
sample=Flute_sustain_FF_C7.opus
</region>

<region>
hivel=127
key=D#4
loop_end=291793
loop_start=124755
loop_xfade=63097
lovel=0
lpc=ugQyQpFK9cIvsQJD8Aacwm+0JEJmdJrBFazOQOBohsAlknVA7YWywHBDrUA6sRbA4d6cQC3WEMGR2h5BwYgQwXXb+ED09lbATpL3v4ArFkB/uxDA3B07QKvAnL+JJ08+
lpc_rms=-20.46
sample=Flute_sustain_FF_D#4.opus
</region>

<region>
hivel=127
key=D#5
loop_end=306813
loop_start=131177
loop_xfade=66345
lovel=0
lpc=rfKXQfvSIsKrae1BnvugwKfgh8DyGY9AQViSPcdagsDx2HFAFdVCwJN2AkB4fx4+DoAUQAoypMBcCaxAaHt2wN604D8PqYe/UlcNQEErzb/4wdE/Ea1Hv6sdDsAQSjNA
lpc_rms=-16.52
sample=Flute_sustain_FF_D#5.opus
</region>

<region>
hivel=127
key=D#6
loop_end=296377
loop_start=126715
loop_xfade=64089
lovel=0
lpc=ymNMQfMnqcCB1se/ee/2PzXn/D9EjMm8d4QaQLRUKD8fFwhAXRoMPvDm5j8m9Fc/HTrwP29SFz8PxNk/pO1UP+Gv2z/089c/Wq6/vrWN1MAHHFU/E/V9QA/qOj9tLUu/
lpc_rms=-18.09
sample=Flute_sustain_FF_D#6.opus
</region>

<region>
hivel=127
key=D4
loop_end=289289
loop_start=123685
loop_xfade=62556
lovel=0
lpc=Z3MyQmoJ+cKt/PlC1QxawtWWi0ENzgTBFvgRvzVl8b/D7NxAx+pOwYC6iUE9GijBuyovQfxJk8EhhndB+pghwUER30DzMBXAH68nQKysK8AtwHY/T8M1wHp5E0Dy0Ay9
lpc_rms=-20.40
sample=Flute_sustain_FF_D4.opus
</region>

<region>
hivel=127
key=D5
loop_end=302746
loop_start=129438
loop_xfade=65466
lovel=0
lpc=wgt9QUvsFMKqTARCqch8wRlZC0E0KojAA3UWQEBrdsCM1NE/khqoPq5avD/HYgLAzxv7P7DuNMASS1FAcPAiv5IDiL/UxFO/SMSMP/ZrhD/GlgG/B2LVP2fjgsBQCypA
lpc_rms=-16.87
sample=Flute_sustain_FF_D5.opus
</region>

<region>
hivel=127
key=D6
loop_end=317509
loop_start=135750
loop_xfade=68658
lovel=0
lpc=mxGiQYwnK8H1JOC/6Dc0QNniAj9JKz9AQxrCP0nU6z9OfStAjRTkPzao4D9EOuY/5DI5QKlyoj8Cm/M/dZEYQHSh2D+QpxhATvnwPw9XHUASKQjBqdiKwKyaHUEhiNw/
lpc_rms=-14.71
offset=32528
sample=Flute_sustain_FF_D6.opus
</region>

<region>
hivel=127
key=E4
loop_end=299115
loop_start=127886
loop_xfade=64680
lovel=0
lpc=8FwYQgjlycLCUL9C3cMpwmpvJ0GQ0ylBvYxmwXRQsL/ZgQVB9cwywTYzdEF8TzfB3ccfQcOnUcF3Ou1AGPxhPvQ6/T/lToTAzeGVQA4b/sBFqOJAxAFrwJJA0z+M9W++
lpc_rms=-20.23
sample=Flute_sustain_FF_E4.opus
</region>

<region>
hivel=127
key=E5
loop_end=298321
loop_start=127546
loop_xfade=64509
lovel=0
lpc=WGXNQbbxJ8J4cJVBrYIdQMnktsD7MApBhOlpwDUir7/ZxX5AexZywB4ijEC2karA/iCjQJrXhcDVSkFAnzjLPnjCs76kgxpAdjpQP7LyPsCuwwNAVhsGwAhq5L/lHqlA
lpc_rms=-16.54
sample=Flute_sustain_FF_E5.opus
</region>

<region>
hivel=127
key=E6
loop_end=294426
loop_start=125881
loop_xfade=63667
lovel=0
lpc=zeOwQTf9RsFVWnrAzT1JQD2qUr5us6Y/Y/9WQIKKUL8ZUn1Add60Pn7yOEBs+c0/gEnMPzU9FUBopwM/VRQ3QBqK6j/bLoU/HZlFwTh9gj6w2ktBCJwPv/6DGT8Ghkg/
lpc_rms=-16.50
sample=Flute_sustain_FF_E6.opus
</region>

<region>
hivel=127
key=F#4
loop_end=293653
loop_start=125550
loop_xfade=63500
lovel=0
lpc=tyXwQQjFncIAx5dCcXYawv0XuUGRYQDBFQcDwX1+T0BGirM/g6eMPRIKz0AO07rAJDwFQDISGcGnmC9BfmWmwM/ExUCHZZHA1NA6PmcA2L6anXM9u0WRPzDaxz331vS+
lpc_rms=-17.68
sample=Flute_sustain_FF_F#4.opus
</region>

<region>
hivel=127
key=F#5
loop_end=294579
loop_start=125947
loop_xfade=63699
lovel=0
lpc=8qDxQXFGO8J9LMpBWm6xvxFlgMBbagpBeWZ4v3LbpMCuscRAYxt7wF2ZqUAyFXLA5eDmQJZS5cBUa7ZA/ojUvrq+Fz9Fahg/GkBlQIbWlMC6Er9A41UJwEN0icCafQlB
lpc_rms=-10.75
sample=Flute_sustain_FF_F#5.opus
</region>

<region>
hivel=127
key=F#6
loop_end=295541
loop_start=126358
loop_xfade=63908
lovel=0
lpc=ROjAQfGcgcG2gXXA1anWQOQTP8B6vqVA5DF9QL63CcCbnkZAkDoOwGk4NEDmXxzAV0LhPw1HAb6UeQq+7ikqPx4XjsEpUYNAwCQbQZz0YcDwkRe/JJIuwB1yccAt85y+
lpc_rms=-16.56
sample=Flute_sustain_FF_F#6.opus
</region>

<region>
hivel=127
key=F4
loop_end=315405
loop_start=134851
loop_xfade=68203
lovel=0
lpc=TMfVQbADiMKkGl1CB2Uzwf5rNkAT0afAbJ6VwHuSekAYnoNARGfuwCOtAEHAAtPAZnDqQBaV3sBNw8U/L4pGv1NrvUAf7ebAYPinQCvlXsBIYRZA+sM1wOiRPEBjOZS/
lpc_rms=-20.07
offset=16253
sample=Flute_sustain_FF_F4.opus
</region>

<region>
hivel=127
key=F5
loop_end=307220
loop_start=131351
loop_xfade=66433
lovel=0
lpc=9BrIQSPbOsJnCuhBg2ZLwKkQWsBXQq5AP055P5Eb0cBSTK9AMTWbwMWApUDBiinADwrxQEKaJMFTPqlAny+ZvxAFLkB+X5q+K+QRQE4tssCFWaRAJKLPvxOKDcBihIpA
lpc_rms=-12.64
sample=Flute_sustain_FF_F5.opus
</region>

<region>
hivel=127
key=F6
loop_end=301774
loop_start=129023
loop_xfade=65255
lovel=0
lpc=0gftQRmWqcEB+SzACu6+QF4cib94XZFAm5nnP/8xiL9QTm9Ag/wRwDzoiUDgoybA/stWQM40Kr/y95w9msGGQCOZm8CHEY/B/LbrQEESOUGwtYrAIkARwLBxG74PmRXA
lpc_rms=-14.87
offset=5027
sample=Flute_sustain_FF_F6.opus
</region>

<region>
hivel=127
key=G#4
loop_end=291854
loop_start=124782
loop_xfade=63110
lovel=0
lpc=o9GyQfiracK08l1Cih3KwWtUSEFDatDAXSQ7v0d4BsBUO9lAp1/UwEDy1kDYkLfAzmKLQCZsj8AjOl9AbKbWvywUMEC5bonAodckQHqrK78EnMU+SmGhP6cWEcCBnH0/
lpc_rms=-18.60
sample=Flute_sustain_FF_G#4.opus
</region>

<region>
hivel=127
key=G#5
loop_end=297822
loop_start=127333
loop_xfade=64401
lovel=0
lpc=+JDQQQK7CMIFG5VB4rGVvpN/uD++BOE/pvwdP/SyZj9PojJAVuWlv1TGy0A0NazAO9jfQMhrqL9C1CdAr0gVP4WROkAVPKS/pgo6QJU8LkC8jJy/ypUWQC1nvD5DPp5A
lpc_rms=-12.68
sample=Flute_sustain_FF_G#5.opus
</region>

<region>
hivel=127
key=G#6
loop_end=299099
loop_start=127879
loop_xfade=64677
lovel=0
lpc=OLjYQdA7RsFrXFTA02onP01RMsDAi+dAwy6XQI91gj9O1DFA+ocSwAizSUDs9Ci/RPQUQJ8iM0BvP3vBh+fVwJHSREE+Jas/pkj1P6B3Rr29E9/AFhm/vliYhr8Tz84/
lpc_rms=-14.01
sample=Flute_sustain_FF_G#6.opus
</region>

<region>
hivel=127
key=G4
loop_end=292530
loop_start=125071
loop_xfade=63256
lovel=0
lpc=OBDcQcnmksJ+w5BC5REFwkUkFUHgJ0lAedQgwYAlwUAh8UPAnjZxQAe3jL4nSmXA+z9xQJJIksAiKvRA2UzPwCReNkA8naS/lsVbP2rPFMA/GX9AdnsPwNK0v74LZDQ/
lpc_rms=-18.22
offset=10545
sample=Flute_sustain_FF_G4.opus
</region>

<region>
hivel=127
key=G5
loop_end=300340
loop_start=128410
loop_xfade=64945
lovel=0
lpc=lFeTQedNycFzLzNB6lDBP2W4IEBZUnHAq4waQBwpej9Kwdw/Aq6+v6nhVECRaTrASp9lQPW2NcA2n6lAON61v/Vd9T+9ggrALFTeP4O5gT8Ebf8/ygxwv4kGlb9rHZJA
lpc_rms=-14.88
sample=Flute_sustain_FF_G5.opus
</region>

<region>
hivel=127
key=G6
loop_end=274460
loop_start=117345
loop_xfade=59349
lovel=0
lpc=G3QmQnWln8HJX2LAk6KTQI6AqD+c5gJARKZBQRU/Sb8p/hNBKNaQv76w8UByPgE+ZorVQLAhnb685CVB03H+wfFBKUB9FJtBH3sRwBd7jz+vZUtALYPbwBDGJj2e8JC/
lpc_rms=-10.76
sample=Flute_sustain_FF_G6.opus
</region>
</group>